<svg xmlns="http://www.w3.org/2000/svg" xmlns:xlink="http://www.w3.org/1999/xlink" width="900" viewBox="0 0 900 472.5" height="472.5" version="1.0"><defs><clipPath id="b"><path d="M 0.476562 0 L 899.523438 0 L 899.523438 472 L 0.476562 472 Z M 0.476562 0"/></clipPath><clipPath id="c"><path d="M 0.476562 40 L 899.523438 40 L 899.523438 428 L 0.476562 428 Z M 0.476562 40"/></clipPath><clipPath id="f"><path d="M 1 3 L 898 3 L 898 385.175781 L 1 385.175781 Z M 1 3"/></clipPath><clipPath id="e"><path d="M0 0H900V388H0z"/></clipPath><filter x="0%" y="0%" width="100%" xmlns:xlink="http://www.w3.org/1999/xlink" xlink:type="simple" xlink:actuate="onLoad" height="100%" id="a" xlink:show="other"><feColorMatrix values="0 0 0 0 1 0 0 0 0 1 0 0 0 0 1 0 0 0 1 0" color-interpolation-filters="sRGB"/></filter><mask id="d"><g filter="url(#a)"><path fill-opacity=".137" d="M-90 -47.25H990V519.75H-90z"/></g></mask></defs><g clip-path="url(#b)"><path fill="#FFF" d="M 0.476562 0 L 899.523438 0 L 899.523438 479.492188 L 0.476562 479.492188 Z M 0.476562 0"/><path fill="#FFF" d="M 0.476562 0 L 899.523438 0 L 899.523438 472 L 0.476562 472 Z M 0.476562 0"/><path fill="#3459E6" d="M 0.476562 0 L 899.523438 0 L 899.523438 472 L 0.476562 472 Z M 0.476562 0"/></g><g clip-path="url(#c)"><g mask="url(#d)"><g><g clip-path="url(#e)" transform="translate(0 40)"><g clip-path="url(#f)"><path fill="#FFF" d="M 836.273438 321.636719 L 835.988281 321.058594 Z M 831.191406 314.027344 C 829.496094 311.476562 828.648438 309.582031 828.117188 308.074219 C 829.152344 309.550781 830.019531 310.902344 830.667969 311.96875 C 830.667969 311.988281 830.765625 313.25 831.503906 314.144531 L 831.386719 314.351562 Z M 814.988281 305.589844 C 811.464844 306.386719 807.671875 306.890625 809.386719 304.515625 C 811.101562 302.121094 812.65625 300.621094 818.210938 301.125 C 819.15625 301.210938 820.023438 301.378906 820.832031 301.558594 C 821.65625 301.921875 822.445312 302.238281 823.132812 302.484375 C 820.996094 303.46875 817.363281 305.078125 814.988281 305.589844 Z M 813.542969 294.84375 C 813.335938 294.214844 813.304688 293.738281 813.335938 293.335938 C 814.734375 294.816406 816.585938 296.472656 819.019531 298.285156 C 819.835938 298.894531 820.625 299.566406 821.382812 300.265625 C 820.957031 300.15625 820.496094 300.050781 820.003906 299.941406 C 817.207031 298.542969 814.132812 296.636719 813.542969 294.84375 Z M 837.976562 223.324219 C 837.019531 223.027344 836.027344 222.722656 834.980469 222.398438 C 835.925781 222.613281 836.941406 222.890625 837.976562 223.324219 Z M 829.664062 212.265625 C 830.007812 212.234375 830.6875 212.292969 831.78125 212.707031 C 833.070312 213.179688 834.253906 213.78125 835.394531 214.382812 L 835.96875 214.679688 C 834.734375 214.550781 833.277344 214.246094 831.800781 213.625 C 830.511719 213.09375 829.902344 212.558594 829.664062 212.265625 Z M 830.945312 312.429688 L 830.679688 311.976562 Z M 832.332031 284.542969 C 831.730469 285.695312 831.152344 286.730469 830.601562 287.636719 C 829.683594 285.835938 828.589844 284.433594 827.4375 283.390625 Z M 895.835938 239.226562 C 895.65625 208.417969 890.792969 206.269531 885.582031 206.25 C 884.84375 206.191406 884.105469 206.210938 883.359375 206.230469 C 881.359375 206.28125 878.589844 206.675781 877.929688 206.980469 C 877.015625 207.382812 874.761719 207.945312 873.234375 208.25 L 873.105469 208.242188 L 873.085938 208.203125 C 862.695312 207.363281 854.195312 209.039062 848.160156 213.613281 L 847.546875 214.027344 C 846.257812 214.519531 845 214.875 843.816406 215.152344 L 843.816406 215.121094 C 840.722656 215.320312 838.597656 214.234375 836.152344 212.945312 C 834.960938 212.324219 833.730469 211.683594 832.332031 211.179688 C 829.035156 209.976562 828.207031 211.082031 828 211.601562 C 827.535156 212.757812 828.757812 214.097656 831.171875 215.121094 C 832.15625 215.535156 833.128906 215.824219 834.046875 216.011719 C 826.816406 216.523438 829.773438 220.070312 831.871094 221.421875 C 816.960938 216.730469 796.050781 209.640625 781.652344 202.683594 C 752.246094 188.488281 708.597656 185.753906 688.625 191.945312 C 684.921875 193.101562 667.066406 192.695312 651.960938 192.113281 C 643.117188 187.3125 632.285156 180.304688 622.296875 175.464844 L 623.007812 172.535156 C 623.007812 172.535156 621.746094 172.398438 619.460938 171.972656 L 620.25 166.738281 C 620.25 166.738281 593.984375 163.773438 561.503906 146.964844 C 554.265625 142.242188 546.691406 136.683594 538.921875 130.078125 C 497.074219 94.539062 463.335938 85.953125 440.890625 85.695312 C 423.152344 83.234375 413.875 86.445312 413.875 86.445312 L 413.769531 88.507812 C 413.628906 87.460938 413.550781 86.859375 413.550781 86.859375 L 402.148438 90.074219 C 375.644531 81.664062 291.984375 45.386719 230.175781 37.492188 C 232.046875 37.1875 233.140625 37.007812 233.140625 37.007812 L 228.265625 37.253906 C 210.46875 35.136719 194.582031 35.472656 182.539062 39.609375 L 177.890625 39.847656 C 177.890625 39.847656 170.925781 42.164062 156.332031 58.863281 C 156.332031 58.863281 159.316406 57.78125 163.285156 56.230469 C 161.71875 57.070312 160.125 57.9375 158.519531 58.84375 C 154.273438 59.101562 148.816406 59.414062 143.292969 59.496094 C 143.300781 53.707031 141.707031 48.167969 141.460938 46.007812 C 140.976562 41.730469 139.699219 42.539062 137.570312 39.53125 C 135.453125 36.515625 134.28125 37.964844 132.222656 33.195312 C 130.164062 28.421875 128.953125 30.324219 123.941406 26.402344 C 118.925781 22.496094 118.496094 24.695312 112.761719 19.765625 C 107.03125 14.816406 109.886719 13.152344 100.777344 12.375 C 91.65625 11.605469 90.367188 9.109375 84.804688 5.277344 C 79.238281 1.460938 66.328125 3.648438 60.074219 5.355469 C 53.828125 7.019531 42.308594 3.136719 24.078125 23.1875 C 19.046875 28.71875 12.980469 38.703125 10.960938 45.160156 C 8.941406 51.597656 11.972656 52.722656 7.511719 61.980469 C 3.050781 71.253906 2.371094 81.546875 2.371094 81.546875 C 1.554688 84.910156 1.386719 88.386719 2.222656 91.808594 C 2.964844 94.855469 4.34375 97.675781 6.085938 100.285156 C 7.945312 103.117188 9.847656 106.023438 12.742188 107.878906 C 15.550781 109.691406 18.671875 110.933594 21.871094 111.890625 C 25.574219 113.015625 29.140625 112.726562 32.902344 113.25 C 36.042969 113.664062 38.683594 115.519531 41.941406 114.828125 C 42.347656 114.738281 42.800781 114.640625 43.261719 114.511719 C 50.402344 117.980469 59.148438 121.679688 68.414062 124.320312 C 76.640625 128.105469 85.324219 132.21875 86.535156 133.234375 C 88.898438 135.214844 93.253906 137.765625 95.726562 129.417969 L 95.863281 128.867188 C 98.007812 129.082031 100.046875 129.257812 102.027344 129.417969 C 102.324219 129.859375 102.679688 130.234375 103.171875 130.472656 C 105.484375 131.527344 108.902344 130.609375 109.296875 129.871094 L 109.296875 129.859375 C 113.945312 130.046875 117.992188 130 121.476562 129.652344 L 121.46875 129.671875 C 125.101562 129.753906 126.304688 129.308594 128.222656 128.90625 C 133.109375 127.910156 135.867188 127.398438 136.554688 124.042969 C 136.8125 122.980469 137.007812 122.015625 137.234375 120.988281 C 137.589844 120.113281 137.875 119.183594 138.054688 118.148438 C 138.242188 117.027344 138.4375 115.625 138.625 114.046875 C 138.941406 112.1875 139.207031 110.402344 139.421875 108.6875 C 141.738281 108.144531 148.058594 106.882812 154.714844 107.550781 C 155.5625 107.964844 158.683594 109.535156 163.667969 112.492188 C 164.722656 115.933594 166.070312 119.539062 167.734375 123.335938 C 166.898438 139.195312 183.867188 175.179688 183.867188 175.179688 C 180.695312 189.128906 200.699219 234.632812 205.859375 246.019531 C 205.199219 247.28125 204.636719 248.679688 204.164062 249.832031 C 199.722656 260.636719 197.320312 298.253906 198.816406 320.308594 C 199.960938 337.136719 197.65625 354.722656 196.492188 362.136719 C 192.484375 363.625 175.496094 369.824219 161.234375 373.214844 C 160.164062 373.304688 159.15625 373.363281 158.234375 373.363281 C 151.820312 373.363281 143.734375 374.535156 138.152344 375.984375 C 124.679688 377.53125 111.363281 381.988281 126.835938 383.09375 C 145.664062 384.433594 222.285156 382.953125 225.871094 380.785156 C 226.1875 380.589844 226.421875 380.304688 226.621094 379.96875 C 232.6875 379.582031 236.742188 379.160156 237.5 378.695312 C 240.703125 376.746094 237.707031 366.609375 231.347656 360.597656 C 231.640625 358.566406 234.359375 340.171875 242.070312 312.253906 C 249.09375 286.859375 250.039062 265.980469 247.960938 249.910156 C 248.699219 233.792969 249.132812 180.945312 244.582031 164.324219 C 243.589844 160.6875 242.75 157.582031 242.070312 154.347656 C 249.675781 157.75 256.507812 160.863281 262.554688 163.910156 C 283.296875 174.398438 388.359375 212.3125 407.179688 211.4375 C 406.273438 206.140625 405.890625 201.171875 405.800781 196.492188 L 416.988281 196.953125 L 602.214844 258.074219 L 604.394531 249.09375 L 607.78125 250.117188 L 608.097656 247.96875 C 612.3125 249.152344 616.910156 250.316406 621.519531 251.222656 C 624.445312 252.660156 627.625 253.351562 631.496094 254.957031 C 636.203125 256.921875 643.351562 255.992188 650.265625 254.152344 C 670.4375 257.550781 700.996094 259.296875 738.230469 266.335938 C 769.007812 272.160156 797.785156 277.574219 818.25 281.417969 L 818.171875 281.890625 C 815.402344 283.015625 812.695312 282.945312 810.3125 285.539062 C 809.386719 286.554688 809.554688 288.703125 811.964844 291.769531 C 809.277344 294.152344 812.597656 297.152344 816.664062 299.476562 C 813.835938 299.320312 810.804688 299.773438 808.902344 301.902344 C 804.5 306.839844 807.625 310.65625 816.734375 306.714844 C 820.96875 304.890625 823.222656 303.914062 824.433594 303.390625 L 824.789062 303.796875 C 824.878906 305.027344 824.886719 306.871094 824.613281 309.640625 C 823.972656 315.800781 827.113281 317.695312 828.789062 318.582031 C 830.453125 319.488281 831.160156 318.761719 831.160156 318.761719 C 831.160156 318.761719 831.0625 317.597656 830.707031 317.617188 C 830.355469 317.617188 826.355469 313.703125 826.179688 309.386719 C 826.117188 307.894531 825.992188 306.761719 825.84375 305.867188 C 826.097656 306.042969 826.414062 306.140625 826.582031 306.179688 C 827.152344 307.523438 827.703125 308.902344 828.039062 310.027344 C 829.023438 313.296875 832.5 317.378906 832.550781 319.273438 C 832.597656 321.144531 834.117188 320.730469 834.117188 320.730469 C 834.117188 320.730469 834.765625 319.816406 831.96875 315.269531 C 832.246094 315.4375 832.511719 315.535156 832.511719 315.535156 L 832.777344 315.429688 C 833.730469 317.203125 834.746094 318.96875 835.789062 320.683594 L 835.96875 321.027344 C 835.949219 321.164062 835.847656 322.25 836.242188 323.175781 C 835.554688 323.933594 837.078125 324.683594 837.078125 324.683594 L 837.679688 324.546875 C 838.765625 326.894531 839.679688 329.042969 840.4375 330.953125 C 840.082031 330.570312 839.898438 330.144531 839.984375 329.832031 C 839.984375 329.832031 838.8125 333.695312 841.6875 334.226562 C 842.878906 337.539062 843.421875 339.550781 843.421875 339.550781 L 843.480469 339.53125 C 853.023438 369.617188 847.097656 370.949219 851.132812 378.609375 C 851.527344 379.355469 852.699219 380.984375 854.167969 382.226562 C 854.285156 382.519531 854.5625 382.867188 855.140625 383.300781 C 856.597656 384.363281 860.421875 384.777344 862.222656 384.925781 L 861.945312 384.964844 C 861.621094 384.945312 861.308594 384.925781 861 384.886719 C 862.085938 385.015625 863.089844 385.066406 863.808594 385.105469 C 865.9375 385.132812 869.804688 378.914062 873.707031 371.46875 C 875.707031 367.683594 877.824219 362.507812 879.714844 355.617188 C 880.226562 355.617188 880.699219 355.617188 881.074219 355.609375 L 880.855469 355.679688 C 880.53125 355.699219 880.207031 355.699219 879.902344 355.699219 C 880.992188 355.707031 882 355.648438 882.71875 355.617188 C 884.84375 355.429688 888.054688 348.867188 891.195312 341.070312 C 895.007812 331.625 898.761719 314.460938 897.214844 284.9375 C 896.152344 264.726562 895.902344 250.957031 895.835938 239.226562"/></g></g></g></g></g><path transform="matrix(.7492 0 0 .7492 90.288 89.343)" fill="none" d="M 345.721175 64.00623 L 341.696087 87.989918 L 335.486397 135.999004 L 365.872687 135.999004 L 382.20245 11.195192 L 336.930632 11.195192 L 309.547518 83.187967 L 301.069805 11.195192 L 255.797988 11.195192 L 239.468225 135.999004 L 269.859728 135.999004 L 276.111128 87.989918 L 278.530353 64.00623 L 287.008065 135.999004 L 318.338061 135.999004 Z M 455.316201 8.96888 C 421.718183 8.96888 405.393633 27.524955 399.647976 70.726877 L 398.829402 76.780151 C 393.088959 119.982072 408.125688 138.225316 441.718493 138.225316 C 475.316511 138.225316 491.484645 119.674455 497.230302 76.46732 L 498.048876 70.414046 C 503.789319 27.212125 488.909005 8.96888 455.316201 8.96888 Z M 442.500569 112.015316 C 428.125998 112.015316 426.838179 98.579237 429.726649 76.780151 L 430.508726 70.726877 C 433.40241 48.969501 438.204361 35.220591 452.578932 35.220591 L 454.335998 35.220591 C 468.75228 35.220591 470.0401 48.65667 467.151629 70.414046 L 466.369553 76.46732 C 463.475869 98.224696 458.673917 112.015316 444.257635 112.015316 Z M 554.045573 66.899914 L 558.028951 37.446903 L 571.934276 37.446903 C 577.872845 37.446903 584.124246 39.360384 582.987628 51.195813 L 582.831212 52.952878 C 581.699808 64.475476 573.889468 66.899914 567.950898 66.899914 Z M 550.682643 93.109914 L 559.160355 93.109914 L 569.864379 135.999004 L 602.675107 135.999004 L 589.395443 88.970121 C 601.074457 84.162956 610.683573 74.084593 613.379131 53.771452 L 613.890088 50.25732 C 618.499127 15.689527 595.135887 11.195192 574.045883 11.195192 L 530.995164 11.195192 L 514.670614 135.999004 L 545.056904 135.999004 Z M 644.599636 11.195192 L 628.269873 135.999004 L 706.665249 135.999004 L 710.028179 109.752508 L 662.019093 109.752508 L 665.220394 85.450775 L 705.221014 85.450775 L 708.735145 59.204279 L 668.739739 59.204279 L 671.628209 37.446903 L 719.637296 37.446903 L 722.995012 11.195192 Z M 644.599636 11.195192" stroke="#FFF" stroke-width="4.6"/><path transform="matrix(.7492 0 0 .7492 90.288 89.343)" fill="none" d="M 117.891783 285.109762 L 130.509288 285.109762 C 151.641003 285.109762 175.974018 280.302597 180.588271 245.771301 L 181.094014 242.257169 C 185.703053 207.689375 162.345027 203.195041 141.249809 203.195041 L 98.204303 203.195041 L 81.87454 327.998853 L 112.266044 327.998853 Z M 121.249499 258.899763 L 125.232877 229.446751 L 139.138202 229.446751 C 145.076772 229.446751 151.328172 231.360232 150.196768 243.195661 L 150.040352 244.952727 C 148.903734 256.475325 141.093394 258.899763 135.154824 258.899763 Z M 239.327451 330.225165 C 275.495895 330.225165 286.82558 314.562774 290.183297 288.311063 L 301.393064 203.195041 L 271.006774 203.195041 L 259.948208 287.528986 C 258.660389 297.450934 254.36418 304.015165 241.084517 304.015165 C 227.799639 304.015165 226.668235 297.450934 227.956054 287.528986 L 239.01462 203.195041 L 208.581406 203.195041 L 197.413349 288.311063 C 194.050419 314.562774 203.153793 330.225165 239.327451 330.225165 Z M 356.456483 277.763454 C 373.406693 279.989766 376.456793 284.953347 375.78942 291.204747 L 375.633005 292.805398 C 375.007344 298.900383 370.361808 304.015165 359.970614 304.015165 L 358.369964 304.015165 C 347.97877 304.015165 343.32802 298.545841 345.085086 284.796932 L 314.698797 284.796932 L 314.344255 287.372571 C 310.673708 316.31984 326.37781 330.225165 356.769313 330.225165 C 386.180614 330.225165 403.798197 317.764075 406.37905 294.249633 L 406.686667 291.361163 C 409.382225 267.528676 397.546796 256.944571 370.831054 253.274024 C 354.344875 251.047712 351.649317 246.709793 352.274979 239.99436 L 352.431394 238.388496 C 353.093552 232.178806 358.213548 227.220439 367.004091 227.220439 L 368.604742 227.220439 C 379.814509 227.220439 383.01581 233.935872 381.065832 247.997612 L 411.493832 247.997612 L 411.963078 244.17065 C 415.47721 215.697842 402.510377 200.968729 371.336797 200.968729 C 340.126719 200.968729 323.953372 216.005458 321.570645 238.075665 L 321.221317 240.969349 C 318.682174 263.508802 329.735526 274.249323 356.456483 277.763454 Z M 503.784106 203.195041 L 497.574416 251.204127 L 467.146416 251.204127 L 473.392602 203.195041 L 443.001099 203.195041 L 426.676549 327.998853 L 457.068053 327.998853 L 463.62707 277.450624 L 494.060284 277.450624 L 487.496053 327.998853 L 517.887557 327.998853 L 534.212106 203.195041 Z M 592.127498 330.225165 C 628.295942 330.225165 639.625628 314.562774 642.983344 288.311063 L 654.193111 203.195041 L 623.806821 203.195041 L 612.748256 287.528986 C 611.460436 297.450934 607.164228 304.015165 593.884564 304.015165 C 580.599687 304.015165 579.468282 297.450934 580.756102 287.528986 L 591.814667 203.195041 L 561.381453 203.195041 L 550.213397 288.311063 C 546.850467 314.562774 555.95384 330.225165 592.127498 330.225165 Z M 701.091648 285.109762 L 713.709154 285.109762 C 734.840868 285.109762 759.179098 280.302597 763.788137 245.771301 L 764.29388 242.257169 C 768.902919 207.689375 745.544892 203.195041 724.449675 203.195041 L 681.404169 203.195041 L 665.074406 327.998853 L 695.46591 327.998853 Z M 704.449365 258.899763 L 708.432742 229.446751 L 722.343281 229.446751 C 728.276637 229.446751 734.528038 231.360232 733.396633 243.195661 L 733.240218 244.952727 C 732.108813 256.475325 724.293259 258.899763 718.35469 258.899763 Z M 820.45742 277.763454 C 837.40763 279.989766 840.452516 284.953347 839.790358 291.204747 L 839.633942 292.805398 C 839.008281 298.900383 834.362745 304.015165 823.971551 304.015165 L 822.370901 304.015165 C 811.979708 304.015165 807.328958 298.545841 809.086023 284.796932 L 778.699734 284.796932 L 778.345192 287.372571 C 774.674645 316.31984 790.378747 330.225165 820.765037 330.225165 C 850.181551 330.225165 867.799134 317.764075 870.374773 294.249633 L 870.687604 291.361163 C 873.383162 267.528676 861.547734 256.944571 834.831991 253.274024 C 818.345813 251.047712 815.650255 246.709793 816.275916 239.99436 L 816.432331 238.388496 C 817.09449 232.178806 822.214486 227.220439 830.999815 227.220439 L 832.605679 227.220439 C 843.815446 227.220439 847.016747 233.935872 845.066769 247.997612 L 875.494769 247.997612 L 875.964016 244.17065 C 879.478147 215.697842 866.511314 200.968729 835.337734 200.968729 C 804.127657 200.968729 787.954309 216.005458 785.571582 238.075665 L 785.222254 240.969349 C 782.683112 263.508802 793.736463 274.249323 820.45742 277.763454 Z M 820.45742 277.763454" stroke="#FFF" stroke-width="4.6"/></svg>